<?xml version="1.0" encoding="utf-8"?>
<svg viewBox="68.032 65.783 495.765 67.643" fill="#ffffff" xmlns="http://www.w3.org/2000/svg">
  <defs>
    <clipPath id="clipPath48" clipPathUnits="userSpaceOnUse">
      <path id="path46" d="M 0,150 H 467.856 V 0 H 0 Z"/>
    </clipPath>
    <clipPath id="clipPath60" clipPathUnits="userSpaceOnUse">
      <path id="path58" d="m 49.959,48.063 h 53.874 v 53.874 H 49.959 Z"/>
    </clipPath>
  </defs>
  <g transform="matrix(1.333333, 0, 0, -1.333333, 0, 200.000006)" id="g10">
    <g id="g42">
      <g clip-path="url(#clipPath48)" id="g44">
        <g transform="translate(147.7657,75.1319)" id="g50">
          <path id="path52" style="fill-opacity: 1; fill-rule: nonzero; stroke: none;" d="m 0,0 c 0,3.95 -0.318,8.335 -3.43,11.328 -1.675,1.635 -4.148,2.792 -7.138,2.792 h -9.375 v -28.279 h 9.375 c 2.99,0 5.463,1.157 7.138,2.794 C -0.318,-8.376 0,-3.948 0,0 m -2.115,0 c 0,-3.389 -0.199,-7.457 -2.831,-10.01 -1.436,-1.355 -3.51,-2.114 -5.622,-2.114 h -7.301 v 24.209 h 7.301 c 2.112,0 4.186,-0.757 5.622,-2.114 C -2.314,7.458 -2.115,3.39 -2.115,0 M 31.229,-14.159 20.38,14.12 H 18.347 L 7.616,-14.159 H 9.77 l 2.792,7.457 h 13.679 l 2.872,-7.457 z m -5.744,9.413 H 13.32 l 6.023,15.994 z M 56.191,14.12 H 54.08 L 45.464,-0.916 36.849,14.12 h -2.234 l 9.773,-17.071 v -11.208 h 2.033 V -2.951 Z M 85.667,-6.341 c 0,3.23 -1.634,6.062 -5.144,6.899 3.229,0.879 4.506,3.551 4.506,6.622 0,2.114 -1.117,4.229 -2.911,5.423 -1.795,1.198 -4.029,1.517 -6.143,1.517 H 65.966 v -28.279 h 10.009 c 2.513,0 5.065,0.318 7.1,1.955 1.795,1.437 2.592,3.63 2.592,5.863 m -2.75,13.362 c 0,-4.507 -3.032,-5.425 -6.942,-5.425 H 68.04 v 10.568 h 7.935 c 3.43,0 6.942,-1.194 6.942,-5.143 m 0.637,-13.203 c 0,-4.905 -3.71,-6.022 -7.579,-6.022 H 68.04 v 11.805 h 7.935 c 4.108,0 7.579,-1.155 7.579,-5.783 m 33.981,12.165 c 0,4.906 -3.35,8.137 -9.531,8.137 H 97.673 v -28.279 h 2.075 v 12.045 h 9.851 l 5.543,-12.045 h 2.275 l -5.744,12.564 c 3.55,0.957 5.862,3.869 5.862,7.578 m -2.155,0 c 0,-4.028 -2.711,-6.181 -7.376,-6.181 h -8.256 v 12.362 h 8.256 c 4.665,0 7.376,-2.153 7.376,-6.181 m 31.947,-20.142 v 1.996 H 131.336 V -0.24 h 14.078 v 1.997 h -14.078 v 10.369 h 15.991 v 1.994 h -18.104 v -28.279 z m 31.47,0 -10.849,28.279 h -2.034 l -10.728,-28.279 h 2.154 l 2.793,7.457 h 13.68 l 2.871,-7.457 z m -5.744,9.413 h -12.164 l 6.022,15.994 z m 36.934,-9.413 -10.332,17.71 9.375,10.569 h -2.553 L 190.92,-3.31 v 17.43 h -2.111 v -28.279 h 2.111 v 7.857 l 7.34,8.299 9.373,-16.156 z m 28.437,0 v 1.996 H 222.428 V -0.24 h 14.082 v 1.997 h -14.082 v 10.369 h 15.996 v 1.994 h -18.107 v -28.279 z m 31.707,20.142 c 0,4.906 -3.349,8.137 -9.533,8.137 h -10.33 v -28.279 h 2.074 v 12.045 h 9.852 l 5.545,-12.045 h 2.273 l -5.744,12.564 c 3.551,0.957 5.863,3.869 5.863,7.578 m -2.152,0 c 0,-4.028 -2.713,-6.181 -7.381,-6.181 h -8.256 v 12.362 h 8.256 c 4.668,0 7.381,-2.153 7.381,-6.181"/>
        </g>
      </g>
    </g>
    <g id="g54">
      <g clip-path="url(#clipPath60)" id="g56">
        <g transform="translate(56.1978,74.8923)" id="g62">
          <path id="path64" style="fill-opacity: 1; fill-rule: nonzero; stroke: none;" d="M 0,0 20.727,-20.727 41.454,0 20.727,20.727 Z M 20.727,-25.137 -4.41,0 20.727,25.136 45.863,0 Z"/>
        </g>
        <g transform="translate(70.2933,69.1538)" id="g66">
          <path id="path68" style="fill-opacity: 1; fill-rule: nonzero; stroke: none;" d="M 0,0 H 13.209 C 12.82,3.299 10.007,5.867 6.604,5.867 3.202,5.867 0.388,3.299 0,0 M 22.977,-3.118 H -8.829 V 0 h 5.696 c 0.4,5.022 4.615,8.985 9.737,8.985 5.123,0 9.337,-3.963 9.738,-8.985 h 6.635 z"/>
        </g>
      </g>
    </g>
  </g>
</svg>